<?xml version="1.0" encoding="utf-8"?>
<!-- Generator: Adobe Illustrator 28.1.0, SVG Export Plug-In . SVG Version: 6.00 Build 0)  -->
<svg version="1.1" id="Layer_1" xmlns="http://www.w3.org/2000/svg" xmlns:xlink="http://www.w3.org/1999/xlink" x="0px" y="0px"
	 viewBox="0 0 629.3 96" style="enable-background:new 0 0 629.3 96;" xml:space="preserve">
<style type="text/css">
	.st0{fill:#FFFFFF;}
</style>
<g>
	<path class="st0" d="M574.3,69.5h22.2V78h-40l20.7-25c2-2.5,3.7-4.6,5.1-6.5c1.4-1.8,2.4-3.4,3.1-4.6c1.5-2.4,2.2-4.6,2.2-6.5
		c0-2.8-1-5.1-2.9-7c-2-1.9-4.4-2.8-7.2-2.8c-6,0-9.5,3.6-10.3,10.7h-8.9c1.4-12.5,7.8-18.8,19-18.8c5.4,0,10,1.7,13.6,5.2
		c3.7,3.4,5.5,7.7,5.5,12.8c0,3.2-0.9,6.4-2.6,9.5c-0.9,1.6-2.2,3.5-3.8,5.8c-1.7,2.2-3.8,4.9-6.4,7.9L574.3,69.5z M629.3,78h-9
		V18.4h9V78z"/>
	<path class="st0" d="M0,96h529.6V0H0V96z M468.5,28.2c6.2-7.3,14.1-10.9,23.9-10.9c5.3,0,10.5,1.5,15.5,4.4v10.6
		c-5.2-4.3-10.6-6.5-16.1-6.5c-6.1,0-11.3,2.2-15.5,6.6c-4.2,4.4-6.3,9.7-6.3,16c0,6.2,2.1,11.5,6.3,15.8c4.2,4.3,9.4,6.4,15.5,6.4
		c3.2,0,5.8-0.5,8.1-1.5c1.2-0.5,2.5-1.2,3.8-2.1c1.3-0.9,2.7-1.9,4.2-3.2v10.8c-5.1,2.9-10.5,4.4-16.2,4.4c-8.5,0-15.8-3-21.8-8.9
		c-6-6-9-13.2-9-21.7C461,40.9,463.5,34.1,468.5,28.2z M408.3,18.4h9V78h-9V18.4z M331.7,18.4H368v8.4h-13.6V78h-9V26.9h-13.7V18.4z
		 M260.9,18.4h32.8v8.4h-23.9v14.3h23.2v8.4h-23.2v19.9h23.9V78h-32.8V18.4z M161.9,14.4l43.4,45.4V18.4h9v63.1l-43.4-45.3V78h-9
		V14.4z M106.3,18.4h9V78h-9V18.4z M21.6,18.4h9v23.7l23.2-23.7h12L38.8,45.4L65.9,78h-12L32.4,51.5l-1.9,1.9V78h-9V18.4z"/>
</g>
</svg>
